PathFileType	4	(X/Y/Z)	S240501-1155_P07_T01_0-394.trc
DataRate	CameraRate	NumFrames	NumMarkers	Units	OrigDataRate	OrigDataStartFrame	OrigNumFrames
60.0	60.0	33	13	m	60.0	49	394
Frame#	Time	Nose			LEye			LEar			LShoulder			LElbow			LWrist			LHip			REye			REar			RShoulder			RElbow			RWrist			RHip		
		X1	Y1	Z1	X2	Y2	Z2	X3	Y3	Z3	X4	Y4	Z4	X5	Y5	Z5	X6	Y6	Z6	X7	Y7	Z7	X8	Y8	Z8	X9	Y9	Z9	X10	Y10	Z10	X11	Y11	Z11	X12	Y12	Z12	X13	Y13	Z13

50	0.833	-0.04749	1.66115	0.15516	-0.07311	1.62406	0.17828	-0.04694	1.57444	0.27451	0.10505	1.50318	0.28073	0.30575	1.46672	0.14400	0.12632	1.59736	0.10208	0.53366	1.60220	0.21426	-0.08001	1.68912	0.17654	-0.06694	1.74491	0.27453	0.10228	1.83174	0.31645	0.32849	1.92771	0.25586	0.32268	1.90236	0.04265	0.52496	1.81811	0.21622
51	0.850	-0.04757	1.66098	0.15513	-0.07256	1.62378	0.17788	-0.04667	1.57416	0.27406	0.10492	1.50318	0.28147	0.30402	1.46705	0.14265	0.12386	1.59673	0.10420	0.53366	1.60220	0.21426	-0.07984	1.68814	0.17685	-0.06670	1.74438	0.27444	0.10244	1.83166	0.31577	0.32888	1.92727	0.25567	0.32240	1.90274	0.04247	0.52496	1.81811	0.21622
52	0.867	-0.04786	1.66090	0.15512	-0.07216	1.62353	0.17751	-0.04662	1.57389	0.27385	0.10483	1.50313	0.28215	0.30237	1.46749	0.14097	0.12184	1.59608	0.10594	0.53366	1.60220	0.21426	-0.07968	1.68718	0.17736	-0.06654	1.74377	0.27442	0.10256	1.83155	0.31521	0.32935	1.92700	0.25513	0.32216	1.90311	0.04218	0.52496	1.81811	0.21622
53	0.883	-0.04823	1.66080	0.15502	-0.07188	1.62337	0.17720	-0.04674	1.57361	0.27393	0.10475	1.50311	0.28266	0.30094	1.46796	0.13930	0.12029	1.59544	0.10742	0.53366	1.60220	0.21426	-0.07957	1.68646	0.17788	-0.06647	1.74309	0.27452	0.10260	1.83143	0.31485	0.32989	1.92695	0.25430	0.32191	1.90333	0.04185	0.52496	1.81811	0.21622
54	0.900	-0.04856	1.66056	0.15474	-0.07172	1.62328	0.17699	-0.04697	1.57335	0.27422	0.10470	1.50321	0.28303	0.29989	1.46832	0.13797	0.11917	1.59484	0.10887	0.53366	1.60220	0.21426	-0.07957	1.68609	0.17827	-0.06647	1.74236	0.27472	0.10256	1.83134	0.31468	0.33050	1.92715	0.25339	0.32163	1.90336	0.04156	0.52496	1.81811	0.21622
55	0.917	-0.04878	1.66009	0.15427	-0.07161	1.62317	0.17689	-0.04716	1.57311	0.27464	0.10468	1.50351	0.28345	0.29922	1.46849	0.13715	0.11837	1.59429	0.11048	0.53366	1.60220	0.21426	-0.07965	1.68600	0.17849	-0.06648	1.74162	0.27490	0.10247	1.83122	0.31463	0.33114	1.92761	0.25267	0.32137	1.90325	0.04139	0.52496	1.81811	0.21622
56	0.933	-0.04882	1.65935	0.15380	-0.07155	1.62296	0.17688	-0.04724	1.57289	0.27504	0.10469	1.50396	0.28405	0.29881	1.46848	0.13673	0.11781	1.59380	0.11221	0.53366	1.60220	0.21426	-0.07974	1.68604	0.17859	-0.06651	1.74091	0.27491	0.10237	1.83101	0.31464	0.33170	1.92823	0.25247	0.32117	1.90312	0.04134	0.52496	1.81811	0.21622
57	0.950	-0.04866	1.65838	0.15348	-0.07152	1.62260	0.17692	-0.04719	1.57265	0.27531	0.10472	1.50442	0.28482	0.29849	1.46834	0.13652	0.11742	1.59338	0.11384	0.53366	1.60220	0.21426	-0.07982	1.68606	0.17863	-0.06656	1.74030	0.27469	0.10229	1.83066	0.31468	0.33196	1.92880	0.25294	0.32108	1.90301	0.04140	0.52496	1.81811	0.21622
58	0.967	-0.04834	1.65730	0.15339	-0.07155	1.62209	0.17704	-0.04705	1.57234	0.27534	0.10472	1.50477	0.28557	0.29813	1.46818	0.13638	0.11712	1.59299	0.11512	0.53366	1.60220	0.21426	-0.07986	1.68597	0.17862	-0.06665	1.73981	0.27425	0.10226	1.83016	0.31477	0.33173	1.92909	0.25398	0.32110	1.90294	0.04156	0.52496	1.81811	0.21622
59	0.983	-0.04799	1.65636	0.15349	-0.07169	1.62157	0.17725	-0.04689	1.57189	0.27511	0.10464	1.50491	0.28605	0.29768	1.46813	0.13624	0.11682	1.59265	0.11599	0.53366	1.60220	0.21426	-0.07986	1.68571	0.17860	-0.06676	1.73942	0.27365	0.10230	1.82959	0.31497	0.33090	1.92897	0.25526	0.32124	1.90291	0.04180	0.52496	1.81811	0.21622
60	1.000	-0.04776	1.65577	0.15372	-0.07196	1.62124	0.17753	-0.04675	1.57131	0.27463	0.10455	1.50486	0.28617	0.29718	1.46827	0.13613	0.11643	1.59238	0.11653	0.53366	1.60220	0.21426	-0.07983	1.68526	0.17855	-0.06694	1.73912	0.27291	0.10238	1.82905	0.31533	0.32939	1.92841	0.25617	0.32144	1.90287	0.04208	0.52496	1.81811	0.21622
61	1.017	-0.04775	1.65562	0.15401	-0.07236	1.62119	0.17783	-0.04662	1.57067	0.27400	0.10454	1.50467	0.28606	0.29671	1.46858	0.13607	0.11593	1.59223	0.11686	0.53366	1.60220	0.21426	-0.07981	1.68473	0.17851	-0.06722	1.73889	0.27213	0.10247	1.82861	0.31582	0.32720	1.92730	0.25587	0.32161	1.90278	0.04232	0.52496	1.81811	0.21622
62	1.033	-0.04804	1.65589	0.15431	-0.07282	1.62133	0.17808	-0.04653	1.57014	0.27336	0.10467	1.50444	0.28592	0.29633	1.46897	0.13604	0.11538	1.59219	0.11710	0.53366	1.60220	0.21426	-0.07983	1.68425	0.17847	-0.06754	1.73875	0.27146	0.10257	1.82829	0.31630	0.32441	1.92550	0.25377	0.32168	1.90258	0.04238	0.52496	1.81811	0.21622
63	1.050	-0.04858	1.65639	0.15460	-0.07323	1.62153	0.17824	-0.04650	1.56985	0.27285	0.10489	1.50422	0.28587	0.29606	1.46931	0.13603	0.11482	1.59221	0.11732	0.53366	1.60220	0.21426	-0.07993	1.68391	0.17847	-0.06782	1.73869	0.27098	0.10274	1.82811	0.31661	0.32131	1.92306	0.25023	0.32164	1.90221	0.04219	0.52496	1.81811	0.21622
64	1.067	-0.04929	1.65693	0.15482	-0.07355	1.62172	0.17831	-0.04656	1.56982	0.27254	0.10508	1.50404	0.28595	0.29588	1.46956	0.13602	0.11425	1.59226	0.11761	0.53366	1.60220	0.21426	-0.08011	1.68374	0.17849	-0.06801	1.73870	0.27070	0.10297	1.82807	0.31673	0.31843	1.92050	0.24643	0.32154	1.90169	0.04182	0.52496	1.81811	0.21622
65	1.083	-0.05006	1.65735	0.15495	-0.07380	1.62187	0.17830	-0.04675	1.57005	0.27245	0.10515	1.50389	0.28624	0.29571	1.46968	0.13602	0.11368	1.59235	0.11794	0.53366	1.60220	0.21426	-0.08033	1.68369	0.17853	-0.06814	1.73874	0.27058	0.10321	1.82816	0.31675	0.31640	1.91860	0.24356	0.32142	1.90117	0.04140	0.52496	1.81811	0.21622
66	1.100	-0.05081	1.65759	0.15502	-0.07400	1.62196	0.17825	-0.04711	1.57049	0.27256	0.10508	1.50379	0.28670	0.29546	1.46966	0.13602	0.11307	1.59243	0.11827	0.53366	1.60220	0.21426	-0.08055	1.68372	0.17856	-0.06820	1.73876	0.27058	0.10337	1.82842	0.31671	0.31566	1.91790	0.24234	0.32132	1.90078	0.04104	0.52496	1.81811	0.21622
67	1.117	-0.05148	1.65768	0.15505	-0.07418	1.62200	0.17818	-0.04761	1.57108	0.27281	0.10492	1.50374	0.28723	0.29507	1.46950	0.13603	0.11243	1.59251	0.11851	0.53366	1.60220	0.21426	-0.08072	1.68376	0.17858	-0.06818	1.73874	0.27065	0.10337	1.82890	0.31654	0.31629	1.91856	0.24293	0.32131	1.90058	0.04076	0.52496	1.81811	0.21622
68	1.133	-0.05206	1.65764	0.15510	-0.07433	1.62200	0.17812	-0.04816	1.57177	0.27310	0.10474	1.50373	0.28766	0.29453	1.46923	0.13604	0.11179	1.59256	0.11863	0.53366	1.60220	0.21426	-0.08084	1.68379	0.17859	-0.06810	1.73867	0.27077	0.10320	1.82960	0.31619	0.31807	1.92034	0.24501	0.32140	1.90052	0.04061	0.52496	1.81811	0.21622
69	1.150	-0.05253	1.65753	0.15522	-0.07447	1.62195	0.17810	-0.04864	1.57250	0.27334	0.10460	1.50379	0.28793	0.29389	1.46890	0.13606	0.11121	1.59262	0.11865	0.53366	1.60220	0.21426	-0.08094	1.68377	0.17862	-0.06797	1.73856	0.27096	0.10287	1.83039	0.31575	0.32043	1.92271	0.24784	0.32160	1.90060	0.04058	0.52496	1.81811	0.21622
70	1.167	-0.05287	1.65738	0.15548	-0.07461	1.62187	0.17811	-0.04899	1.57313	0.27344	0.10449	1.50395	0.28800	0.29327	1.46856	0.13607	0.11072	1.59265	0.11861	0.53366	1.60220	0.21426	-0.08104	1.68372	0.17867	-0.06782	1.73845	0.27124	0.10248	1.83107	0.31538	0.32270	1.92499	0.25055	0.32188	1.90082	0.04069	0.52496	1.81811	0.21622
71	1.183	-0.05307	1.65720	0.15592	-0.07476	1.62178	0.17813	-0.04923	1.57350	0.27337	0.10440	1.50418	0.28789	0.29278	1.46829	0.13606	0.11039	1.59262	0.11853	0.53366	1.60220	0.21426	-0.08112	1.68364	0.17871	-0.06770	1.73836	0.27165	0.10216	1.83151	0.31522	0.32445	1.92678	0.25268	0.32219	1.90110	0.04095	0.52496	1.81811	0.21622
72	1.200	-0.05311	1.65699	0.15655	-0.07491	1.62167	0.17815	-0.04939	1.57358	0.27316	0.10429	1.50446	0.28764	0.29248	1.46809	0.13604	0.11020	1.59248	0.11841	0.53366	1.60220	0.21426	-0.08117	1.68355	0.17872	-0.06766	1.73833	0.27222	0.10197	1.83169	0.31528	0.32562	1.92807	0.25432	0.32248	1.90130	0.04134	0.52496	1.81811	0.21622
73	1.217	-0.05303	1.65680	0.15723	-0.07504	1.62157	0.17815	-0.04946	1.57343	0.27291	0.10419	1.50471	0.28735	0.29235	1.46797	0.13601	0.11014	1.59222	0.11825	0.53366	1.60220	0.21426	-0.08118	1.68347	0.17870	-0.06770	1.73834	0.27297	0.10190	1.83171	0.31543	0.32636	1.92897	0.25574	0.32272	1.90132	0.04185	0.52496	1.81811	0.21622
74	1.233	-0.05292	1.65667	0.15784	-0.07513	1.62153	0.17814	-0.04945	1.57321	0.27274	0.10416	1.50487	0.28711	0.29235	1.46791	0.13598	0.11015	1.59189	0.11805	0.53366	1.60220	0.21426	-0.08113	1.68344	0.17865	-0.06782	1.73838	0.27382	0.10192	1.83168	0.31554	0.32678	1.92957	0.25711	0.32287	1.90121	0.04231	0.52496	1.81811	0.21622
75	1.250	-0.05284	1.65660	0.15826	-0.07517	1.62154	0.17812	-0.04939	1.57305	0.27276	0.10422	1.50498	0.28697	0.29241	1.46791	0.13598	0.11019	1.59155	0.11787	0.53366	1.60220	0.21426	-0.08105	1.68342	0.17863	-0.06799	1.73845	0.27458	0.10198	1.83167	0.31552	0.32694	1.92980	0.25820	0.32290	1.90106	0.04250	0.52496	1.81811	0.21622
76	1.267	-0.05282	1.65660	0.15850	-0.07520	1.62158	0.17810	-0.04928	1.57300	0.27302	0.10432	1.50511	0.28685	0.29247	1.46790	0.13602	0.11023	1.59129	0.11771	0.53366	1.60220	0.21426	-0.08102	1.68338	0.17867	-0.06819	1.73860	0.27513	0.10205	1.83171	0.31536	0.32685	1.92967	0.25850	0.32283	1.90096	0.04231	0.52496	1.81811	0.21622
77	1.283	-0.05284	1.65663	0.15859	-0.07523	1.62165	0.17805	-0.04906	1.57308	0.27352	0.10440	1.50529	0.28670	0.29251	1.46786	0.13607	0.11027	1.59115	0.11758	0.53366	1.60220	0.21426	-0.08106	1.68326	0.17877	-0.06844	1.73890	0.27543	0.10216	1.83181	0.31509	0.32657	1.92924	0.25773	0.32270	1.90094	0.04184	0.52496	1.81811	0.21622
78	1.300	-0.05285	1.65671	0.15856	-0.07526	1.62175	0.17796	-0.04871	1.57329	0.27422	0.10445	1.50547	0.28654	0.29251	1.46778	0.13614	0.11028	1.59120	0.11747	0.53366	1.60220	0.21426	-0.08115	1.68309	0.17892	-0.06869	1.73941	0.27554	0.10232	1.83195	0.31479	0.32617	1.92862	0.25615	0.32257	1.90098	0.04134	0.52496	1.81811	0.21622
79	1.317	-0.05284	1.65683	0.15844	-0.07525	1.62189	0.17780	-0.04830	1.57357	0.27500	0.10444	1.50556	0.28641	0.29249	1.46764	0.13620	0.11027	1.59143	0.11736	0.53366	1.60220	0.21426	-0.08123	1.68292	0.17904	-0.06889	1.74014	0.27552	0.10251	1.83212	0.31452	0.32566	1.92787	0.25418	0.32247	1.90102	0.04101	0.52496	1.81811	0.21622
80	1.333	-0.05284	1.65695	0.15828	-0.07520	1.62204	0.17761	-0.04794	1.57383	0.27570	0.10437	1.50557	0.28630	0.29244	1.46748	0.13625	0.11026	1.59167	0.11722	0.53366	1.60220	0.21426	-0.08125	1.68284	0.17906	-0.06898	1.74096	0.27544	0.10267	1.83226	0.31432	0.32500	1.92702	0.25211	0.32236	1.90103	0.04090	0.52496	1.81811	0.21622
81	1.350	-0.05287	1.65701	0.15817	-0.07512	1.62214	0.17744	-0.04770	1.57400	0.27624	0.10422	1.50553	0.28624	0.29239	1.46732	0.13628	0.11024	1.59173	0.11704	0.53366	1.60220	0.21426	-0.08124	1.68290	0.17897	-0.06894	1.74167	0.27536	0.10278	1.83231	0.31426	0.32421	1.92612	0.25019	0.32221	1.90099	0.04086	0.52496	1.81811	0.21622
82	1.367	-0.05293	1.65701	0.15812	-0.07503	1.62218	0.17735	-0.04752	1.57407	0.27657	0.10402	1.50546	0.28621	0.29233	1.46719	0.13630	0.11024	1.59156	0.11685	0.53366	1.60220	0.21426	-0.08122	1.68307	0.17880	-0.06876	1.74215	0.27532	0.10281	1.83227	0.31432	0.32349	1.92532	0.24879	0.32202	1.90090	0.04076	0.52496	1.81811	0.21622
